<?xml version="1.0" encoding="utf-8"?>
<svg id="Layer_1" style="enable-background:new 0 0 512 512;" x="0px" y="0px" viewBox="0 0 100 100" xmlns="http://www.w3.org/2000/svg">
  <path d="M 0 73.064 C 0 85.159 10.195 95 22.727 95 C 25.238 95 27.273 93.035 27.273 90.613 L 27.273 55.515 C 27.273 53.092 25.238 51.128 22.727 51.128 C 21.171 51.128 19.651 51.28 18.182 51.569 C 14.825 52.229 11.735 53.607 9.091 55.527 C 3.575 59.532 0 65.902 0 73.064 Z" style="stroke-width: 1.037; fill: rgb(156, 39, 176);"/>
  <path d="M 90.909 55.527 C 88.265 53.607 85.175 52.229 81.818 51.569 C 80.349 51.28 78.829 51.128 77.273 51.128 C 74.762 51.128 72.727 53.092 72.727 55.515 L 72.727 90.613 C 72.727 93.036 74.762 95 77.273 95 C 89.804 95 100 85.159 100 73.064 C 100 65.902 96.425 59.532 90.909 55.527 Z" style="stroke-width: 1.037; fill: rgb(156, 39, 176);"/>
  <g transform="matrix(0.2, 0, 0, 0.181782, 0, 4.108865)">
    <path d="M 250 30.96 C 137.212 30.96 45.454 128.399 45.454 248.171 L 45.454 282.855 C 58.676 272.292 74.124 264.715 90.909 261.082 L 90.909 248.172 C 90.909 155.017 162.274 79.23 249.999 79.23 C 337.723 79.23 409.089 155.017 409.089 248.172 L 409.089 261.081 C 425.874 264.714 441.322 272.291 454.543 282.854 L 454.543 248.17 C 454.545 128.4 362.787 30.96 250 30.96 Z" style="stroke-width: 1.037; fill: rgb(255, 152, 0);"/>
    <path d="M 45.454 248.171 L 45.454 282.855 C 58.676 272.292 74.124 264.715 90.909 261.082 L 90.909 248.172 C 90.909 155.017 162.274 79.23 249.999 79.23 L 249.999 30.962 C 137.212 30.96 45.454 128.4 45.454 248.171 Z" style="stroke-width: 1.037; fill: rgb(255, 152, 0);"/>
  </g>
  <g transform="matrix(0.195312, 0, 0, 0.19649, 0, 5)"/>
  <g transform="matrix(0.195312, 0, 0, 0.19649, 0, 5)"/>
  <g transform="matrix(0.195312, 0, 0, 0.19649, 0, 5)"/>
  <g transform="matrix(0.195312, 0, 0, 0.19649, 0, 5)"/>
  <g transform="matrix(0.195312, 0, 0, 0.19649, 0, 5)"/>
  <g transform="matrix(0.195312, 0, 0, 0.19649, 0, 5)"/>
  <g transform="matrix(0.195312, 0, 0, 0.19649, 0, 5)"/>
  <g transform="matrix(0.195312, 0, 0, 0.19649, 0, 5)"/>
  <g transform="matrix(0.195312, 0, 0, 0.19649, 0, 5)"/>
  <g transform="matrix(0.195312, 0, 0, 0.19649, 0, 5)"/>
  <g transform="matrix(0.195312, 0, 0, 0.19649, 0, 5)"/>
  <g transform="matrix(0.195312, 0, 0, 0.19649, 0, 5)"/>
  <g transform="matrix(0.195312, 0, 0, 0.19649, 0, 5)"/>
  <g transform="matrix(0.195312, 0, 0, 0.19649, 0, 5)"/>
  <g transform="matrix(0.195312, 0, 0, 0.19649, 0, 5)"/>
</svg>