<?xml version="1.0" encoding="utf-8"?>
<svg id="Capa_1" style="enable-background:new 0 0 56 56;" x="0px" y="0px" viewBox="0 0 100 100" xmlns="http://www.w3.org/2000/svg" xmlns:bx="https://boxy-svg.com">
  <g transform="matrix(0.2, 0, 0, 0.2, -0.000004, -0.000002)">
    <g transform="matrix(1.111111, 0, 0, 1.111111, -54.324444, -53.351109)">
      <path d="M 411.159 48.016 L 301.342 48.016 L 97.625 251.074 L 295.409 449.283 L 498.892 246.466 L 498.892 135.549 L 411.159 48.016 Z M 399.017 171.933 C 385.509 171.933 374.559 160.983 374.559 147.474 C 374.559 133.966 385.509 123.016 399.017 123.016 C 412.525 123.016 423.475 133.966 423.475 147.474 C 423.475 160.983 412.525 171.933 399.017 171.933 Z" style="fill: rgb(76, 175, 80);"/>
      <polygon points="97.867 250.966 48.892 299.808 246.675 498.016 295.867 448.958" style="fill: rgb(102, 102, 102);"/>
      <path d="M 399.017 123.016 C 412.525 123.016 423.475 133.966 423.475 147.474 C 423.475 160.983 412.525 171.933 399.017 171.933 C 385.509 171.933 374.559 160.983 374.559 147.474 C 374.559 133.966 385.509 123.016 399.017 123.016 M 399.017 89.683 C 367.15 89.683 341.225 115.608 341.225 147.474 C 341.225 179.341 367.15 205.266 399.017 205.266 C 430.884 205.266 456.809 179.341 456.809 147.474 C 456.809 115.608 430.884 89.683 399.017 89.683 L 399.017 89.683 Z" style="fill: rgb(102, 102, 102);"/>
    </g>
    <g transform="matrix(1.166667, 0, 0, 1.111111, -97.021233, -94.504425)" bx:origin="0.429 0.5">
      <path d="M 308.156 269.554 C 314.149 255.521 327.378 242.554 343.297 242.554 C 364.732 242.554 380.168 260.689 382.111 282.303 C 382.111 282.303 383.161 287.67 380.854 297.325 C 377.716 310.478 370.338 322.165 360.385 331.081 L 308.156 377.554 L 255.937 331.081 C 245.985 322.165 238.606 310.478 235.468 297.325 C 233.161 287.67 234.211 282.303 234.211 282.303 C 236.149 260.689 251.583 242.554 273.016 242.554 C 288.937 242.554 302.169 255.521 308.156 269.554 Z" style="fill: rgb(203, 23, 30);"/>
    </g>
  </g>
  <g transform="matrix(0.2, 0, 0, 0.2, -0.000004, -0.000002)"/>
  <g transform="matrix(0.2, 0, 0, 0.2, -0.000004, -0.000002)"/>
  <g transform="matrix(0.2, 0, 0, 0.2, -0.000004, -0.000002)"/>
  <g transform="matrix(0.2, 0, 0, 0.2, -0.000004, -0.000002)"/>
  <g transform="matrix(0.2, 0, 0, 0.2, -0.000004, -0.000002)"/>
  <g transform="matrix(0.2, 0, 0, 0.2, -0.000004, -0.000002)"/>
  <g transform="matrix(0.2, 0, 0, 0.2, -0.000004, -0.000002)"/>
  <g transform="matrix(0.2, 0, 0, 0.2, -0.000004, -0.000002)"/>
  <g transform="matrix(0.2, 0, 0, 0.2, -0.000004, -0.000002)"/>
  <g transform="matrix(0.2, 0, 0, 0.2, -0.000004, -0.000002)"/>
  <g transform="matrix(0.2, 0, 0, 0.2, -0.000004, -0.000002)"/>
  <g transform="matrix(0.2, 0, 0, 0.2, -0.000004, -0.000002)"/>
  <g transform="matrix(0.2, 0, 0, 0.2, -0.000004, -0.000002)"/>
  <g transform="matrix(0.2, 0, 0, 0.2, -0.000004, -0.000002)"/>
  <g transform="matrix(0.2, 0, 0, 0.2, -0.000004, -0.000002)"/>
</svg>