<?xml version="1.0" encoding="utf-8"?>
<svg viewBox="0 0 100 100" xmlns="http://www.w3.org/2000/svg" xmlns:bx="https://boxy-svg.com">
  <defs>
    <pattern id="pattern-0" x="0" y="0" width="20" height="20" patternUnits="userSpaceOnUse" viewBox="0 0 100 100">
      <path d="M 0 0 L 50 0 L 50 100 L 0 100 Z" style="fill: black;"/>
    </pattern>
  </defs>
  <g transform="matrix(0.229005, 0, 0, 0.228239, -7.597416, -6.574059)" bx:origin="0 -0.057">
    <g transform="matrix(1.590386, 0, 0, 1.590386, 141.59549, 144.838104)">
      <g id="group-111svg" transform="matrix(1, 0, 0, 1, 0, 3.692379)">
        <path id="path-5_14_" style="stroke-width: 0; stroke-opacity: 0; fill: rgb(203, 23, 30);" d="M 206.112 182.596 L -68.458 182.596 L -68.458 -59.836 L 206.112 -59.836 L 206.112 182.596 Z"/>
        <path id="path-7_14_" style="stroke-width: 0; stroke-opacity: 0; fill: rgb(238, 238, 238);" d="M 151.198 55.871 C 151.198 104.556 111.861 144.027 63.337 144.027 C 14.81 144.027 -24.527 104.556 -24.527 55.871 C -24.527 7.182 14.81 -32.287 63.337 -32.287 C 111.861 -32.287 151.198 7.182 151.198 55.871 Z"/>
        <path id="path-11_7_" style="stroke-width: 0; stroke-opacity: 0; fill: rgb(68, 68, 68);" d="M 189.638 -13.002 C 189.638 -2.35 181.033 6.282 170.418 6.282 C 159.803 6.282 151.198 -2.35 151.198 -13.002 C 151.198 -23.655 159.803 -32.287 170.418 -32.287 C 181.033 -32.287 189.638 -23.655 189.638 -13.002 Z"/>
        <path id="path-13_4_" style="stroke-width: 0; stroke-opacity: 0; fill: rgb(238, 238, 238);" d="M -27.272 148.158 C -27.272 153.485 -31.574 157.801 -36.883 157.801 C -42.191 157.801 -46.492 153.485 -46.492 148.158 C -46.492 142.834 -42.191 138.517 -36.883 138.517 C -31.574 138.517 -27.272 142.834 -27.272 148.158 Z"/>
        <path id="path-16_3_" style="stroke-width: 0; stroke-opacity: 0; fill: rgb(68, 68, 68);" d="M 101.191 80.597 C 99.586 80.597 97.982 79.984 96.758 78.76 C 94.308 76.313 94.308 72.34 96.758 69.892 L 114.346 52.302 C 115.492 51.156 115.492 49.298 114.346 48.153 C 111.315 45.124 109.668 40.93 109.824 36.651 C 109.98 32.368 111.928 28.304 115.17 25.503 L 166.827 -19.143 C 169.445 -21.403 173.4 -21.119 175.673 -18.497 C 177.934 -15.875 177.647 -11.918 175.027 -9.653 L 123.368 34.992 C 122.527 35.717 122.372 36.625 122.355 37.104 C 122.336 37.581 122.424 38.498 123.212 39.288 C 129.246 45.32 129.246 55.135 123.212 61.169 L 105.625 78.76 C 104.4 79.984 102.793 80.597 101.191 80.597 Z"/>
        <path id="path-18_2_" d="M 76.936 98.726 L 76.936 98.726 C 73.514 95.302 73.514 89.753 76.936 86.33 L 95.525 67.743 C 98.947 64.322 104.496 64.322 107.918 67.743 L 107.918 67.743 C 111.341 71.165 111.341 76.713 107.918 80.135 L 89.329 98.726 C 85.907 102.147 80.358 102.147 76.936 98.726 Z" style="stroke-width: 0; stroke-opacity: 0; fill: rgb(68, 68, 68);"/>
        <path id="path-19_1_" style="stroke-width: 0; stroke-opacity: 0; fill: rgb(33, 150, 243);" d="M 178.941 171.289 L 151.484 171.289 L 151.484 116.191 L 178.941 116.191 L 178.941 171.289 Z" bx:origin="-7.6 0.5"/>
        <path id="path-1" d="M 79.809 55.87 C 79.809 64.999 72.433 72.399 63.335 72.399 C 54.237 72.399 46.861 64.999 46.861 55.87 C 46.861 46.742 54.237 39.341 63.335 39.341 C 72.433 39.341 79.809 46.742 79.809 55.87 Z" style="stroke-width: 0; stroke-opacity: 0; fill: rgb(68, 68, 68);"/>
      </g>
    </g>
    <g transform="matrix(1.590386, 0, 0, 1.590386, 141.59549, 144.838104)"/>
    <g transform="matrix(1.590386, 0, 0, 1.590386, 141.59549, 144.838104)"/>
    <g transform="matrix(1.590386, 0, 0, 1.590386, 141.59549, 144.838104)"/>
    <g transform="matrix(1.590386, 0, 0, 1.590386, 141.59549, 144.838104)"/>
    <g transform="matrix(1.590386, 0, 0, 1.590386, 141.59549, 144.838104)"/>
    <g transform="matrix(1.590386, 0, 0, 1.590386, 141.59549, 144.838104)"/>
    <g transform="matrix(1.590386, 0, 0, 1.590386, 141.59549, 144.838104)"/>
    <g transform="matrix(1.590386, 0, 0, 1.590386, 141.59549, 144.838104)"/>
    <g transform="matrix(1.590386, 0, 0, 1.590386, 141.59549, 144.838104)"/>
    <g transform="matrix(1.590386, 0, 0, 1.590386, 141.59549, 144.838104)"/>
    <g transform="matrix(1.590386, 0, 0, 1.590386, 141.59549, 144.838104)"/>
    <g transform="matrix(1.590386, 0, 0, 1.590386, 141.59549, 144.838104)"/>
    <g transform="matrix(1.590386, 0, 0, 1.590386, 141.59549, 144.838104)"/>
    <g transform="matrix(1.590386, 0, 0, 1.590386, 141.59549, 144.838104)"/>
    <g transform="matrix(1.590386, 0, 0, 1.590386, 141.59549, 144.838104)"/>
  </g>
</svg>